<svg id="eSlyprNbx8i1" xmlns="http://www.w3.org/2000/svg" xmlns:xlink="http://www.w3.org/1999/xlink" viewBox="0 0 200 200" shape-rendering="geometricPrecision" text-rendering="geometricPrecision"><circle r="70" transform="matrix(-.907624-.419783 0.419783-.907624 102.408875 100)" fill="none" stroke="#0973a5" stroke-width="10" stroke-linecap="round" stroke-dashoffset="329.87" stroke-dasharray="109.95,439.82"/><g transform="translate(100 100)"><g><circle r="64" transform="matrix(-.707107 0.707107-.707107-.707107 0 0)" fill="none" stroke="#0594d6" stroke-width="30" stroke-dashoffset="201.06" stroke-dasharray="402.12,402.12"/><circle r="74" transform="matrix(-.707107 0.707107-.707107-.707107 0 0)" fill="none" stroke="#39bcf9" stroke-width="10" stroke-dashoffset="232.48" stroke-dasharray="464.96,464.96"/><circle r="54" transform="matrix(-.707107 0.707107-.707107-.707107 0 0)" fill="none" stroke="#0674a7" stroke-width="10" stroke-dashoffset="169.64" stroke-dasharray="339.29,339.29"/></g><g transform="matrix(.707107-.707107 0.707107 0.707107 35.3553-33.9411)"><g><rect width="30" height="30" rx="5" ry="5" fill="#0973a5"/><g clip-path="url(#eSlyprNbx8i13)"><rect width="5" height="30" rx="0" ry="0" fill="#0973a5"/><clipPath id="eSlyprNbx8i13"><rect width="30" height="30" rx="5" ry="5"/></clipPath></g><rect width="30" height="20" rx="0" ry="0" fill="#e3e4e8"/><rect width="15" height="20" rx="0" ry="0" fill="#abafba"/><rect width="5" height="20" rx="0" ry="0" fill="#c7cad1"/><rect width="30" height="2" rx="0" ry="0" transform="translate(0 6)" fill="rgba(23,24,28,0.2)"/><rect width="30" height="2" rx="0" ry="0" transform="translate(0 13)" fill="rgba(23,24,28,0.2)"/></g></g><g transform="matrix(-.707107 0.707107-.707107-.707107-13.435 55.8614)"><polygon points="15,0 30,30 0,30" fill="#f7b96e"/><polygon points="15,0 6,30 0,30" fill="#f28b0d"/><polygon points="15,0 20,10 10,10" fill="#17181c"/></g></g></svg>
